P3
48 32
255
19 38 57 36 38 70 53 38 83 70 38 96 87 38 109 104 38 122 121 38 135 138 38 148 155 38 161 172 38 174 189 38 187 206 38 200 223 38 213 240 38 226 1 38 239 18 38 252 35 38 9 52 38 22 69 38 35 86 38 48 103 38 61 120 38 74 137 38 87 154 38 100 171 38 113 188 38 126 205 38 139 222 38 152 239 38 165 0 38 178 17 38 191 34 38 204 51 38 217 68 38 230 85 38 243 102 38 0 119 38 13 136 38 26 153 38 39 170 38 52 187 38 65 204 38 78 221 38 91 238 38 104 255 38 117 16 38 130 33 38 143 50 38 156
19 67 70 36 67 83 53 67 96 70 67 109 87 67 122 104 67 135 121 67 148 138 67 161 155 67 174 172 67 187 189 67 200 206 67 213 223 67 226 240 67 239 1 67 252 18 67 9 35 67 22 52 67 35 69 67 48 86 67 61 103 67 74 120 67 87 137 67 100 154 67 113 171 67 126 188 67 139 205 67 152 222 67 165 239 67 178 0 67 191 17 67 204 34 67 217 51 67 230 68 67 243 85 67 0 102 67 13 119 67 26 136 67 39 153 67 52 170 67 65 187 67 78 204 67 91 221 67 104 238 67 117 255 67 130 16 67 143 33 67 156 50 67 169
19 96 83 36 96 96 53 96 109 70 96 122 87 96 135 104 96 148 121 96 161 138 96 174 155 96 187 172 96 200 189 96 213 206 96 226 223 96 239 240 96 252 1 96 9 18 96 22 35 96 35 52 96 48 69 96 61 86 96 74 103 96 87 120 96 100 137 96 113 154 96 126 171 96 139 188 96 152 205 96 165 222 96 178 239 96 191 0 96 204 17 96 217 34 96 230 51 96 243 68 96 0 85 96 13 102 96 26 119 96 39 136 96 52 153 96 65 170 96 78 187 96 91 204 96 104 221 96 117 238 96 130 255 96 143 16 96 156 33 96 169 50 96 182
19 125 96 36 125 109 53 125 122 70 125 135 87 125 148 104 125 161 121 125 174 138 125 187 155 125 200 172 125 213 189 125 226 206 125 239 223 125 252 240 125 9 1 125 22 18 125 35 35 125 48 52 125 61 69 125 74 86 125 87 103 125 100 120 125 113 137 125 126 154 125 139 171 125 152 188 125 165 205 125 178 222 125 191 239 125 204 0 125 217 17 125 230 34 125 243 51 125 0 68 125 13 85 125 26 102 125 39 119 125 52 136 125 65 153 125 78 170 125 91 187 125 104 204 125 117 221 125 130 238 125 143 255 125 156 16 125 169 33 125 182 50 125 195
19 154 109 36 154 122 53 154 135 70 154 148 87 154 161 104 154 174 121 154 187 138 154 200 155 154 213 172 154 226 189 154 239 206 154 252 223 154 9 240 154 22 1 154 35 18 154 48 35 154 61 52 154 74 69 154 87 86 154 100 103 154 113 120 154 126 137 154 139 154 154 152 171 154 165 188 154 178 205 154 191 222 154 204 239 154 217 0 154 230 17 154 243 34 154 0 51 154 13 68 154 26 85 154 39 102 154 52 119 154 65 136 154 78 153 154 91 170 154 104 187 154 117 204 154 130 221 154 143 238 154 156 255 154 169 16 154 182 33 154 195 50 154 208
19 183 122 36 183 135 53 183 148 70 183 161 87 183 174 104 183 187 121 183 200 138 183 213 155 183 226 172 183 239 189 183 252 206 183 9 223 183 22 240 183 35 1 183 48 18 183 61 35 183 74 52 183 87 69 183 100 86 183 113 103 183 126 120 183 139 137 183 152 154 183 165 171 183 178 188 183 191 205 183 204 222 183 217 239 183 230 0 183 243 17 183 0 34 183 13 51 183 26 68 183 39 85 183 52 102 183 65 119 183 78 136 183 91 153 183 104 170 183 117 187 183 130 204 183 143 221 183 156 238 183 169 255 183 182 16 183 195 33 183 208 50 183 221
19 212 135 36 212 148 53 212 161 70 212 174 87 212 187 104 212 200 121 212 213 138 212 226 155 212 239 172 212 252 189 212 9 206 212 22 223 212 35 240 212 48 1 212 61 18 212 74 35 212 87 52 212 100 69 212 113 86 212 126 103 212 139 120 212 152 137 212 165 154 212 178 171 212 191 188 212 204 205 212 217 222 212 230 239 212 243 0 212 0 17 212 13 34 212 26 51 212 39 68 212 52 85 212 65 102 212 78 119 212 91 136 212 104 153 212 117 170 212 130 187 212 143 204 212 156 221 212 169 238 212 182 255 212 195 16 212 208 33 212 221 50 212 234
19 241 148 36 241 161 53 241 174 70 241 187 87 241 200 104 241 213 121 241 226 138 241 239 155 241 252 172 241 9 189 241 22 206 241 35 223 241 48 240 241 61 1 241 74 18 241 87 35 241 100 52 241 113 69 241 126 86 241 139 103 241 152 120 241 165 137 241 178 154 241 191 171 241 204 188 241 217 205 241 230 222 241 243 239 241 0 0 241 13 17 241 26 34 241 39 51 241 52 68 241 65 85 241 78 102 241 91 119 241 104 136 241 117 153 241 130 170 241 143 187 241 156 204 241 169 221 241 182 238 241 195 255 241 208 16 241 221 33 241 234 50 241 247
19 14 161 36 14 174 53 14 187 70 14 200 87 14 213 104 14 226 121 14 239 138 14 252 155 14 9 172 14 22 189 14 35 206 14 48 223 14 61 240 14 74 1 14 87 18 14 100 35 14 113 52 14 126 69 14 139 86 14 152 103 14 165 120 14 178 137 14 191 154 14 204 171 14 217 188 14 230 205 14 243 222 14 0 239 14 13 0 14 26 17 14 39 34 14 52 51 14 65 68 14 78 85 14 91 102 14 104 119 14 117 136 14 130 153 14 143 170 14 156 187 14 169 204 14 182 221 14 195 238 14 208 255 14 221 16 14 234 33 14 247 50 14 4
19 43 174 36 43 187 53 43 200 70 43 213 87 43 226 104 43 239 121 43 252 138 43 9 155 43 22 172 43 35 189 43 48 206 43 61 223 43 74 240 43 87 1 43 100 18 43 113 35 43 126 52 43 139 69 43 152 86 43 165 103 43 178 120 43 191 137 43 204 154 43 217 171 43 230 188 43 243 205 43 0 222 43 13 239 43 26 0 43 39 17 43 52 34 43 65 51 43 78 68 43 91 85 43 104 102 43 117 119 43 130 136 43 143 153 43 156 170 43 169 187 43 182 204 43 195 221 43 208 238 43 221 255 43 234 16 43 247 33 43 4 50 43 17
19 72 187 36 72 200 53 72 213 70 72 226 87 72 239 104 72 252 121 72 9 138 72 22 155 72 35 172 72 48 189 72 61 206 72 74 223 72 87 240 72 100 1 72 113 18 72 126 35 72 139 52 72 152 69 72 165 86 72 178 103 72 191 120 72 204 137 72 217 154 72 230 171 72 243 188 72 0 205 72 13 222 72 26 239 72 39 0 72 52 17 72 65 34 72 78 51 72 91 68 72 104 85 72 117 102 72 130 119 72 143 136 72 156 153 72 169 170 72 182 187 72 195 204 72 208 221 72 221 238 72 234 255 72 247 16 72 4 33 72 17 50 72 30
19 101 200 36 101 213 53 101 226 70 101 239 87 101 252 104 101 9 121 101 22 138 101 35 155 101 48 172 101 61 189 101 74 206 101 87 223 101 100 240 101 113 1 101 126 18 101 139 35 101 152 52 101 165 69 101 178 86 101 191 103 101 204 120 101 217 137 101 230 154 101 243 171 101 0 188 101 13 205 101 26 222 101 39 239 101 52 0 101 65 17 101 78 34 101 91 51 101 104 68 101 117 85 101 130 102 101 143 119 101 156 136 101 169 153 101 182 170 101 195 187 101 208 204 101 221 221 101 234 238 101 247 255 101 4 16 101 17 33 101 30 50 101 43
19 130 213 36 130 226 53 130 239 70 130 252 87 130 9 104 130 22 121 130 35 138 130 48 155 130 61 172 130 74 189 130 87 206 130 100 223 130 113 240 130 126 1 130 139 18 130 152 35 130 165 52 130 178 69 130 191 86 130 204 103 130 217 120 130 230 137 130 243 154 130 0 171 130 13 188 130 26 205 130 39 222 130 52 239 130 65 0 130 78 17 130 91 34 130 104 51 130 117 68 130 130 85 130 143 102 130 156 119 130 169 136 130 182 153 130 195 170 130 208 187 130 221 204 130 234 221 130 247 238 130 4 255 130 17 16 130 30 33 130 43 50 130 56
19 159 226 36 159 239 53 159 252 70 159 9 87 159 22 104 159 35 121 159 48 138 159 61 155 159 74 172 159 87 189 159 100 206 159 113 223 159 126 240 159 139 1 159 152 18 159 165 35 159 178 52 159 191 69 159 204 86 159 217 103 159 230 120 159 243 137 159 0 154 159 13 171 159 26 188 159 39 205 159 52 222 159 65 239 159 78 0 159 91 17 159 104 34 159 117 51 159 130 68 159 143 85 159 156 102 159 169 119 159 182 136 159 195 153 159 208 170 159 221 187 159 234 204 159 247 221 159 4 238 159 17 255 159 30 16 159 43 33 159 56 50 159 69
19 188 239 36 188 252 53 188 9 70 188 22 87 188 35 104 188 48 121 188 61 138 188 74 155 188 87 172 188 100 189 188 113 206 188 126 223 188 139 240 188 152 1 188 165 18 188 178 35 188 191 52 188 204 69 188 217 86 188 230 103 188 243 120 188 0 137 188 13 154 188 26 171 188 39 188 188 52 205 188 65 222 188 78 239 188 91 0 188 104 17 188 117 34 188 130 51 188 143 68 188 156 85 188 169 102 188 182 119 188 195 136 188 208 153 188 221 170 188 234 187 188 247 204 188 4 221 188 17 238 188 30 255 188 43 16 188 56 33 188 69 50 188 82
19 217 252 36 217 9 53 217 22 70 217 35 87 217 48 104 217 61 121 217 74 138 217 87 155 217 100 172 217 113 189 217 126 206 217 139 223 217 152 240 217 165 1 217 178 18 217 191 35 217 204 52 217 217 69 217 230 86 217 243 103 217 0 120 217 13 137 217 26 154 217 39 171 217 52 188 217 65 205 217 78 222 217 91 239 217 104 0 217 117 17 217 130 34 217 143 51 217 156 68 217 169 85 217 182 102 217 195 119 217 208 136 217 221 153 217 234 170 217 247 187 217 4 204 217 17 221 217 30 238 217 43 255 217 56 16 217 69 33 217 82 50 217 95
19 246 9 36 246 22 53 246 35 70 246 48 87 246 61 104 246 74 121 246 87 138 246 100 155 246 113 172 246 126 189 246 139 206 246 152 223 246 165 240 246 178 1 246 191 18 246 204 35 246 217 52 246 230 69 246 243 86 246 0 103 246 13 120 246 26 137 246 39 154 246 52 171 246 65 188 246 78 205 246 91 222 246 104 239 246 117 0 246 130 17 246 143 34 246 156 51 246 169 68 246 182 85 246 195 102 246 208 119 246 221 136 246 234 153 246 247 170 246 4 187 246 17 204 246 30 221 246 43 238 246 56 255 246 69 16 246 82 33 246 95 50 246 108
19 19 22 36 19 35 53 19 48 70 19 61 87 19 74 104 19 87 121 19 100 138 19 113 155 19 126 172 19 139 189 19 152 206 19 165 223 19 178 240 19 191 1 19 204 18 19 217 35 19 230 52 19 243 69 19 0 86 19 13 103 19 26 120 19 39 137 19 52 154 19 65 171 19 78 188 19 91 205 19 104 222 19 117 239 19 130 0 19 143 17 19 156 34 19 169 51 19 182 68 19 195 85 19 208 102 19 221 119 19 234 136 19 247 153 19 4 170 19 17 187 19 30 204 19 43 221 19 56 238 19 69 255 19 82 16 19 95 33 19 108 50 19 121
19 48 35 36 48 48 53 48 61 70 48 74 87 48 87 104 48 100 121 48 113 138 48 126 155 48 139 172 48 152 189 48 165 206 48 178 223 48 191 240 48 204 1 48 217 18 48 230 35 48 243 52 48 0 69 48 13 86 48 26 103 48 39 120 48 52 137 48 65 154 48 78 171 48 91 188 48 104 205 48 117 222 48 130 239 48 143 0 48 156 17 48 169 34 48 182 51 48 195 68 48 208 85 48 221 102 48 234 119 48 247 136 48 4 153 48 17 170 48 30 187 48 43 204 48 56 221 48 69 238 48 82 255 48 95 16 48 108 33 48 121 50 48 134
19 77 48 36 77 61 53 77 74 70 77 87 87 77 100 104 77 113 121 77 126 138 77 139 155 77 152 172 77 165 189 77 178 206 77 191 223 77 204 240 77 217 1 77 230 18 77 243 35 77 0 52 77 13 69 77 26 86 77 39 103 77 52 120 77 65 137 77 78 154 77 91 171 77 104 188 77 117 205 77 130 222 77 143 239 77 156 0 77 169 17 77 182 34 77 195 51 77 208 68 77 221 85 77 234 102 77 247 119 77 4 136 77 17 153 77 30 170 77 43 187 77 56 204 77 69 221 77 82 238 77 95 255 77 108 16 77 121 33 77 134 50 77 147
19 106 61 36 106 74 53 106 87 70 106 100 87 106 113 104 106 126 121 106 139 138 106 152 155 106 165 172 106 178 189 106 191 206 106 204 223 106 217 240 106 230 1 106 243 18 106 0 35 106 13 52 106 26 69 106 39 86 106 52 103 106 65 120 106 78 137 106 91 154 106 104 171 106 117 188 106 130 205 106 143 222 106 156 239 106 169 0 106 182 17 106 195 34 106 208 51 106 221 68 106 234 85 106 247 102 106 4 119 106 17 136 106 30 153 106 43 170 106 56 187 106 69 204 106 82 221 106 95 238 106 108 255 106 121 16 106 134 33 106 147 50 106 160
19 135 74 36 135 87 53 135 100 70 135 113 87 135 126 104 135 139 121 135 152 138 135 165 155 135 178 172 135 191 189 135 204 206 135 217 223 135 230 240 135 243 1 135 0 18 135 13 35 135 26 52 135 39 69 135 52 86 135 65 103 135 78 120 135 91 137 135 104 154 135 117 171 135 130 188 135 143 205 135 156 222 135 169 239 135 182 0 135 195 17 135 208 34 135 221 51 135 234 68 135 247 85 135 4 102 135 17 119 135 30 136 135 43 153 135 56 170 135 69 187 135 82 204 135 95 221 135 108 238 135 121 255 135 134 16 135 147 33 135 160 50 135 173
19 164 87 36 164 100 53 164 113 70 164 126 87 164 139 104 164 152 121 164 165 138 164 178 155 164 191 172 164 204 189 164 217 206 164 230 223 164 243 240 164 0 1 164 13 18 164 26 35 164 39 52 164 52 69 164 65 86 164 78 103 164 91 120 164 104 137 164 117 154 164 130 171 164 143 188 164 156 205 164 169 222 164 182 239 164 195 0 164 208 17 164 221 34 164 234 51 164 247 68 164 4 85 164 17 102 164 30 119 164 43 136 164 56 153 164 69 170 164 82 187 164 95 204 164 108 221 164 121 238 164 134 255 164 147 16 164 160 33 164 173 50 164 186
19 193 100 36 193 113 53 193 126 70 193 139 87 193 152 104 193 165 121 193 178 138 193 191 155 193 204 172 193 217 189 193 230 206 193 243 223 193 0 240 193 13 1 193 26 18 193 39 35 193 52 52 193 65 69 193 78 86 193 91 103 193 104 120 193 117 137 193 130 154 193 143 171 193 156 188 193 169 205 193 182 222 193 195 239 193 208 0 193 221 17 193 234 34 193 247 51 193 4 68 193 17 85 193 30 102 193 43 119 193 56 136 193 69 153 193 82 170 193 95 187 193 108 204 193 121 221 193 134 238 193 147 255 193 160 16 193 173 33 193 186 50 193 199
19 222 113 36 222 126 53 222 139 70 222 152 87 222 165 104 222 178 121 222 191 138 222 204 155 222 217 172 222 230 189 222 243 206 222 0 223 222 13 240 222 26 1 222 39 18 222 52 35 222 65 52 222 78 69 222 91 86 222 104 103 222 117 120 222 130 137 222 143 154 222 156 171 222 169 188 222 182 205 222 195 222 222 208 239 222 221 0 222 234 17 222 247 34 222 4 51 222 17 68 222 30 85 222 43 102 222 56 119 222 69 136 222 82 153 222 95 170 222 108 187 222 121 204 222 134 221 222 147 238 222 160 255 222 173 16 222 186 33 222 199 50 222 212
19 251 126 36 251 139 53 251 152 70 251 165 87 251 178 104 251 191 121 251 204 138 251 217 155 251 230 172 251 243 189 251 0 206 251 13 223 251 26 240 251 39 1 251 52 18 251 65 35 251 78 52 251 91 69 251 104 86 251 117 103 251 130 120 251 143 137 251 156 154 251 169 171 251 182 188 251 195 205 251 208 222 251 221 239 251 234 0 251 247 17 251 4 34 251 17 51 251 30 68 251 43 85 251 56 102 251 69 119 251 82 136 251 95 153 251 108 170 251 121 187 251 134 204 251 147 221 251 160 238 251 173 255 251 186 16 251 199 33 251 212 50 251 225
19 24 139 36 24 152 53 24 165 70 24 178 87 24 191 104 24 204 121 24 217 138 24 230 155 24 243 172 24 0 189 24 13 206 24 26 223 24 39 240 24 52 1 24 65 18 24 78 35 24 91 52 24 104 69 24 117 86 24 130 103 24 143 120 24 156 137 24 169 154 24 182 171 24 195 188 24 208 205 24 221 222 24 234 239 24 247 0 24 4 17 24 17 34 24 30 51 24 43 68 24 56 85 24 69 102 24 82 119 24 95 136 24 108 153 24 121 170 24 134 187 24 147 204 24 160 221 24 173 238 24 186 255 24 199 16 24 212 33 24 225 50 24 238
19 53 152 36 53 165 53 53 178 70 53 191 87 53 204 104 53 217 121 53 230 138 53 243 155 53 0 172 53 13 189 53 26 206 53 39 223 53 52 240 53 65 1 53 78 18 53 91 35 53 104 52 53 117 69 53 130 86 53 143 103 53 156 120 53 169 137 53 182 154 53 195 171 53 208 188 53 221 205 53 234 222 53 247 239 53 4 0 53 17 17 53 30 34 53 43 51 53 56 68 53 69 85 53 82 102 53 95 119 53 108 136 53 121 153 53 134 170 53 147 187 53 160 204 53 173 221 53 186 238 53 199 255 53 212 16 53 225 33 53 238 50 53 251
19 82 165 36 82 178 53 82 191 70 82 204 87 82 217 104 82 230 121 82 243 138 82 0 155 82 13 172 82 26 189 82 39 206 82 52 223 82 65 240 82 78 1 82 91 18 82 104 35 82 117 52 82 130 69 82 143 86 82 156 103 82 169 120 82 182 137 82 195 154 82 208 171 82 221 188 82 234 205 82 247 222 82 4 239 82 17 0 82 30 17 82 43 34 82 56 51 82 69 68 82 82 85 82 95 102 82 108 119 82 121 136 82 134 153 82 147 170 82 160 187 82 173 204 82 186 221 82 199 238 82 212 255 82 225 16 82 238 33 82 251 50 82 8
19 111 178 36 111 191 53 111 204 70 111 217 87 111 230 104 111 243 121 111 0 138 111 13 155 111 26 172 111 39 189 111 52 206 111 65 223 111 78 240 111 91 1 111 104 18 111 117 35 111 130 52 111 143 69 111 156 86 111 169 103 111 182 120 111 195 137 111 208 154 111 221 171 111 234 188 111 247 205 111 4 222 111 17 239 111 30 0 111 43 17 111 56 34 111 69 51 111 82 68 111 95 85 111 108 102 111 121 119 111 134 136 111 147 153 111 160 170 111 173 187 111 186 204 111 199 221 111 212 238 111 225 255 111 238 16 111 251 33 111 8 50 111 21
19 140 191 36 140 204 53 140 217 70 140 230 87 140 243 104 140 0 121 140 13 138 140 26 155 140 39 172 140 52 189 140 65 206 140 78 223 140 91 240 140 104 1 140 117 18 140 130 35 140 143 52 140 156 69 140 169 86 140 182 103 140 195 120 140 208 137 140 221 154 140 234 171 140 247 188 140 4 205 140 17 222 140 30 239 140 43 0 140 56 17 140 69 34 140 82 51 140 95 68 140 108 85 140 121 102 140 134 119 140 147 136 140 160 153 140 173 170 140 186 187 140 199 204 140 212 221 140 225 238 140 238 255 140 251 16 140 8 33 140 21 50 140 34
19 169 204 36 169 217 53 169 230 70 169 243 87 169 0 104 169 13 121 169 26 138 169 39 155 169 52 172 169 65 189 169 78 206 169 91 223 169 104 240 169 117 1 169 130 18 169 143 35 169 156 52 169 169 69 169 182 86 169 195 103 169 208 120 169 221 137 169 234 154 169 247 171 169 4 188 169 17 205 169 30 222 169 43 239 169 56 0 169 69 17 169 82 34 169 95 51 169 108 68 169 121 85 169 134 102 169 147 119 169 160 136 169 173 153 169 186 170 169 199 187 169 212 204 169 225 221 169 238 238 169 251 255 169 8 16 169 21 33 169 34 50 169 47
