P3
16 9
255
37 74 111 54 74 124 71 74 137 88 74 150 105 74 163 122 74 176 139 74 189 156 74 202 173 74 215 190 74 228 207 74 241 224 74 254 241 74 11 2 74 24 19 74 37 36 74 50
37 103 124 54 103 137 71 103 150 88 103 163 105 103 176 122 103 189 139 103 202 156 103 215 173 103 228 190 103 241 207 103 254 224 103 11 241 103 24 2 103 37 19 103 50 36 103 63
37 132 137 54 132 150 71 132 163 88 132 176 105 132 189 122 132 202 139 132 215 156 132 228 173 132 241 190 132 254 207 132 11 224 132 24 241 132 37 2 132 50 19 132 63 36 132 76
37 161 150 54 161 163 71 161 176 88 161 189 105 161 202 122 161 215 139 161 228 156 161 241 173 161 254 190 161 11 207 161 24 224 161 37 241 161 50 2 161 63 19 161 76 36 161 89
37 190 163 54 190 176 71 190 189 88 190 202 105 190 215 122 190 228 139 190 241 156 190 254 173 190 11 190 190 24 207 190 37 224 190 50 241 190 63 2 190 76 19 190 89 36 190 102
37 219 176 54 219 189 71 219 202 88 219 215 105 219 228 122 219 241 139 219 254 156 219 11 173 219 24 190 219 37 207 219 50 224 219 63 241 219 76 2 219 89 19 219 102 36 219 115
37 248 189 54 248 202 71 248 215 88 248 228 105 248 241 122 248 254 139 248 11 156 248 24 173 248 37 190 248 50 207 248 63 224 248 76 241 248 89 2 248 102 19 248 115 36 248 128
37 21 202 54 21 215 71 21 228 88 21 241 105 21 254 122 21 11 139 21 24 156 21 37 173 21 50 190 21 63 207 21 76 224 21 89 241 21 102 2 21 115 19 21 128 36 21 141
37 50 215 54 50 228 71 50 241 88 50 254 105 50 11 122 50 24 139 50 37 156 50 50 173 50 63 190 50 76 207 50 89 224 50 102 241 50 115 2 50 128 19 50 141 36 50 154
