P3
9 16
255
31 62 93 48 62 106 65 62 119 82 62 132 99 62 145 116 62 158 133 62 171 150 62 184 167 62 197
31 91 106 48 91 119 65 91 132 82 91 145 99 91 158 116 91 171 133 91 184 150 91 197 167 91 210
31 120 119 48 120 132 65 120 145 82 120 158 99 120 171 116 120 184 133 120 197 150 120 210 167 120 223
31 149 132 48 149 145 65 149 158 82 149 171 99 149 184 116 149 197 133 149 210 150 149 223 167 149 236
31 178 145 48 178 158 65 178 171 82 178 184 99 178 197 116 178 210 133 178 223 150 178 236 167 178 249
31 207 158 48 207 171 65 207 184 82 207 197 99 207 210 116 207 223 133 207 236 150 207 249 167 207 6
31 236 171 48 236 184 65 236 197 82 236 210 99 236 223 116 236 236 133 236 249 150 236 6 167 236 19
31 9 184 48 9 197 65 9 210 82 9 223 99 9 236 116 9 249 133 9 6 150 9 19 167 9 32
31 38 197 48 38 210 65 38 223 82 38 236 99 38 249 116 38 6 133 38 19 150 38 32 167 38 45
31 67 210 48 67 223 65 67 236 82 67 249 99 67 6 116 67 19 133 67 32 150 67 45 167 67 58
31 96 223 48 96 236 65 96 249 82 96 6 99 96 19 116 96 32 133 96 45 150 96 58 167 96 71
31 125 236 48 125 249 65 125 6 82 125 19 99 125 32 116 125 45 133 125 58 150 125 71 167 125 84
31 154 249 48 154 6 65 154 19 82 154 32 99 154 45 116 154 58 133 154 71 150 154 84 167 154 97
31 183 6 48 183 19 65 183 32 82 183 45 99 183 58 116 183 71 133 183 84 150 183 97 167 183 110
31 212 19 48 212 32 65 212 45 82 212 58 99 212 71 116 212 84 133 212 97 150 212 110 167 212 123
31 241 32 48 241 45 65 241 58 82 241 71 99 241 84 116 241 97 133 241 110 150 241 123 167 241 136
