P3
30 40
255
7 14 21 24 14 34 41 14 47 58 14 60 75 14 73 92 14 86 109 14 99 126 14 112 143 14 125 160 14 138 177 14 151 194 14 164 211 14 177 228 14 190 245 14 203 6 14 216 23 14 229 40 14 242 57 14 255 74 14 12 91 14 25 108 14 38 125 14 51 142 14 64 159 14 77 176 14 90 193 14 103 210 14 116 227 14 129 244 14 142
7 43 34 24 43 47 41 43 60 58 43 73 75 43 86 92 43 99 109 43 112 126 43 125 143 43 138 160 43 151 177 43 164 194 43 177 211 43 190 228 43 203 245 43 216 6 43 229 23 43 242 40 43 255 57 43 12 74 43 25 91 43 38 108 43 51 125 43 64 142 43 77 159 43 90 176 43 103 193 43 116 210 43 129 227 43 142 244 43 155
7 72 47 24 72 60 41 72 73 58 72 86 75 72 99 92 72 112 109 72 125 126 72 138 143 72 151 160 72 164 177 72 177 194 72 190 211 72 203 228 72 216 245 72 229 6 72 242 23 72 255 40 72 12 57 72 25 74 72 38 91 72 51 108 72 64 125 72 77 142 72 90 159 72 103 176 72 116 193 72 129 210 72 142 227 72 155 244 72 168
7 101 60 24 101 73 41 101 86 58 101 99 75 101 112 92 101 125 109 101 138 126 101 151 143 101 164 160 101 177 177 101 190 194 101 203 211 101 216 228 101 229 245 101 242 6 101 255 23 101 12 40 101 25 57 101 38 74 101 51 91 101 64 108 101 77 125 101 90 142 101 103 159 101 116 176 101 129 193 101 142 210 101 155 227 101 168 244 101 181
7 130 73 24 130 86 41 130 99 58 130 112 75 130 125 92 130 138 109 130 151 126 130 164 143 130 177 160 130 190 177 130 203 194 130 216 211 130 229 228 130 242 245 130 255 6 130 12 23 130 25 40 130 38 57 130 51 74 130 64 91 130 77 108 130 90 125 130 103 142 130 116 159 130 129 176 130 142 193 130 155 210 130 168 227 130 181 244 130 194
7 159 86 24 159 99 41 159 112 58 159 125 75 159 138 92 159 151 109 159 164 126 159 177 143 159 190 160 159 203 177 159 216 194 159 229 211 159 242 228 159 255 245 159 12 6 159 25 23 159 38 40 159 51 57 159 64 74 159 77 91 159 90 108 159 103 125 159 116 142 159 129 159 159 142 176 159 155 193 159 168 210 159 181 227 159 194 244 159 207
7 188 99 24 188 112 41 188 125 58 188 138 75 188 151 92 188 164 109 188 177 126 188 190 143 188 203 160 188 216 177 188 229 194 188 242 211 188 255 228 188 12 245 188 25 6 188 38 23 188 51 40 188 64 57 188 77 74 188 90 91 188 103 108 188 116 125 188 129 142 188 142 159 188 155 176 188 168 193 188 181 210 188 194 227 188 207 244 188 220
7 217 112 24 217 125 41 217 138 58 217 151 75 217 164 92 217 177 109 217 190 126 217 203 143 217 216 160 217 229 177 217 242 194 217 255 211 217 12 228 217 25 245 217 38 6 217 51 23 217 64 40 217 77 57 217 90 74 217 103 91 217 116 108 217 129 125 217 142 142 217 155 159 217 168 176 217 181 193 217 194 210 217 207 227 217 220 244 217 233
7 246 125 24 246 138 41 246 151 58 246 164 75 246 177 92 246 190 109 246 203 126 246 216 143 246 229 160 246 242 177 246 255 194 246 12 211 246 25 228 246 38 245 246 51 6 246 64 23 246 77 40 246 90 57 246 103 74 246 116 91 246 129 108 246 142 125 246 155 142 246 168 159 246 181 176 246 194 193 246 207 210 246 220 227 246 233 244 246 246
7 19 138 24 19 151 41 19 164 58 19 177 75 19 190 92 19 203 109 19 216 126 19 229 143 19 242 160 19 255 177 19 12 194 19 25 211 19 38 228 19 51 245 19 64 6 19 77 23 19 90 40 19 103 57 19 116 74 19 129 91 19 142 108 19 155 125 19 168 142 19 181 159 19 194 176 19 207 193 19 220 210 19 233 227 19 246 244 19 3
7 48 151 24 48 164 41 48 177 58 48 190 75 48 203 92 48 216 109 48 229 126 48 242 143 48 255 160 48 12 177 48 25 194 48 38 211 48 51 228 48 64 245 48 77 6 48 90 23 48 103 40 48 116 57 48 129 74 48 142 91 48 155 108 48 168 125 48 181 142 48 194 159 48 207 176 48 220 193 48 233 210 48 246 227 48 3 244 48 16
7 77 164 24 77 177 41 77 190 58 77 203 75 77 216 92 77 229 109 77 242 126 77 255 143 77 12 160 77 25 177 77 38 194 77 51 211 77 64 228 77 77 245 77 90 6 77 103 23 77 116 40 77 129 57 77 142 74 77 155 91 77 168 108 77 181 125 77 194 142 77 207 159 77 220 176 77 233 193 77 246 210 77 3 227 77 16 244 77 29
7 106 177 24 106 190 41 106 203 58 106 216 75 106 229 92 106 242 109 106 255 126 106 12 143 106 25 160 106 38 177 106 51 194 106 64 211 106 77 228 106 90 245 106 103 6 106 116 23 106 129 40 106 142 57 106 155 74 106 168 91 106 181 108 106 194 125 106 207 142 106 220 159 106 233 176 106 246 193 106 3 210 106 16 227 106 29 244 106 42
7 135 190 24 135 203 41 135 216 58 135 229 75 135 242 92 135 255 109 135 12 126 135 25 143 135 38 160 135 51 177 135 64 194 135 77 211 135 90 228 135 103 245 135 116 6 135 129 23 135 142 40 135 155 57 135 168 74 135 181 91 135 194 108 135 207 125 135 220 142 135 233 159 135 246 176 135 3 193 135 16 210 135 29 227 135 42 244 135 55
7 164 203 24 164 216 41 164 229 58 164 242 75 164 255 92 164 12 109 164 25 126 164 38 143 164 51 160 164 64 177 164 77 194 164 90 211 164 103 228 164 116 245 164 129 6 164 142 23 164 155 40 164 168 57 164 181 74 164 194 91 164 207 108 164 220 125 164 233 142 164 246 159 164 3 176 164 16 193 164 29 210 164 42 227 164 55 244 164 68
7 193 216 24 193 229 41 193 242 58 193 255 75 193 12 92 193 25 109 193 38 126 193 51 143 193 64 160 193 77 177 193 90 194 193 103 211 193 116 228 193 129 245 193 142 6 193 155 23 193 168 40 193 181 57 193 194 74 193 207 91 193 220 108 193 233 125 193 246 142 193 3 159 193 16 176 193 29 193 193 42 210 193 55 227 193 68 244 193 81
7 222 229 24 222 242 41 222 255 58 222 12 75 222 25 92 222 38 109 222 51 126 222 64 143 222 77 160 222 90 177 222 103 194 222 116 211 222 129 228 222 142 245 222 155 6 222 168 23 222 181 40 222 194 57 222 207 74 222 220 91 222 233 108 222 246 125 222 3 142 222 16 159 222 29 176 222 42 193 222 55 210 222 68 227 222 81 244 222 94
7 251 242 24 251 255 41 251 12 58 251 25 75 251 38 92 251 51 109 251 64 126 251 77 143 251 90 160 251 103 177 251 116 194 251 129 211 251 142 228 251 155 245 251 168 6 251 181 23 251 194 40 251 207 57 251 220 74 251 233 91 251 246 108 251 3 125 251 16 142 251 29 159 251 42 176 251 55 193 251 68 210 251 81 227 251 94 244 251 107
7 24 255 24 24 12 41 24 25 58 24 38 75 24 51 92 24 64 109 24 77 126 24 90 143 24 103 160 24 116 177 24 129 194 24 142 211 24 155 228 24 168 245 24 181 6 24 194 23 24 207 40 24 220 57 24 233 74 24 246 91 24 3 108 24 16 125 24 29 142 24 42 159 24 55 176 24 68 193 24 81 210 24 94 227 24 107 244 24 120
7 53 12 24 53 25 41 53 38 58 53 51 75 53 64 92 53 77 109 53 90 126 53 103 143 53 116 160 53 129 177 53 142 194 53 155 211 53 168 228 53 181 245 53 194 6 53 207 23 53 220 40 53 233 57 53 246 74 53 3 91 53 16 108 53 29 125 53 42 142 53 55 159 53 68 176 53 81 193 53 94 210 53 107 227 53 120 244 53 133
7 82 25 24 82 38 41 82 51 58 82 64 75 82 77 92 82 90 109 82 103 126 82 116 143 82 129 160 82 142 177 82 155 194 82 168 211 82 181 228 82 194 245 82 207 6 82 220 23 82 233 40 82 246 57 82 3 74 82 16 91 82 29 108 82 42 125 82 55 142 82 68 159 82 81 176 82 94 193 82 107 210 82 120 227 82 133 244 82 146
7 111 38 24 111 51 41 111 64 58 111 77 75 111 90 92 111 103 109 111 116 126 111 129 143 111 142 160 111 155 177 111 168 194 111 181 211 111 194 228 111 207 245 111 220 6 111 233 23 111 246 40 111 3 57 111 16 74 111 29 91 111 42 108 111 55 125 111 68 142 111 81 159 111 94 176 111 107 193 111 120 210 111 133 227 111 146 244 111 159
7 140 51 24 140 64 41 140 77 58 140 90 75 140 103 92 140 116 109 140 129 126 140 142 143 140 155 160 140 168 177 140 181 194 140 194 211 140 207 228 140 220 245 140 233 6 140 246 23 140 3 40 140 16 57 140 29 74 140 42 91 140 55 108 140 68 125 140 81 142 140 94 159 140 107 176 140 120 193 140 133 210 140 146 227 140 159 244 140 172
7 169 64 24 169 77 41 169 90 58 169 103 75 169 116 92 169 129 109 169 142 126 169 155 143 169 168 160 169 181 177 169 194 194 169 207 211 169 220 228 169 233 245 169 246 6 169 3 23 169 16 40 169 29 57 169 42 74 169 55 91 169 68 108 169 81 125 169 94 142 169 107 159 169 120 176 169 133 193 169 146 210 169 159 227 169 172 244 169 185
7 198 77 24 198 90 41 198 103 58 198 116 75 198 129 92 198 142 109 198 155 126 198 168 143 198 181 160 198 194 177 198 207 194 198 220 211 198 233 228 198 246 245 198 3 6 198 16 23 198 29 40 198 42 57 198 55 74 198 68 91 198 81 108 198 94 125 198 107 142 198 120 159 198 133 176 198 146 193 198 159 210 198 172 227 198 185 244 198 198
7 227 90 24 227 103 41 227 116 58 227 129 75 227 142 92 227 155 109 227 168 126 227 181 143 227 194 160 227 207 177 227 220 194 227 233 211 227 246 228 227 3 245 227 16 6 227 29 23 227 42 40 227 55 57 227 68 74 227 81 91 227 94 108 227 107 125 227 120 142 227 133 159 227 146 176 227 159 193 227 172 210 227 185 227 227 198 244 227 211
7 0 103 24 0 116 41 0 129 58 0 142 75 0 155 92 0 168 109 0 181 126 0 194 143 0 207 160 0 220 177 0 233 194 0 246 211 0 3 228 0 16 245 0 29 6 0 42 23 0 55 40 0 68 57 0 81 74 0 94 91 0 107 108 0 120 125 0 133 142 0 146 159 0 159 176 0 172 193 0 185 210 0 198 227 0 211 244 0 224
7 29 116 24 29 129 41 29 142 58 29 155 75 29 168 92 29 181 109 29 194 126 29 207 143 29 220 160 29 233 177 29 246 194 29 3 211 29 16 228 29 29 245 29 42 6 29 55 23 29 68 40 29 81 57 29 94 74 29 107 91 29 120 108 29 133 125 29 146 142 29 159 159 29 172 176 29 185 193 29 198 210 29 211 227 29 224 244 29 237
7 58 129 24 58 142 41 58 155 58 58 168 75 58 181 92 58 194 109 58 207 126 58 220 143 58 233 160 58 246 177 58 3 194 58 16 211 58 29 228 58 42 245 58 55 6 58 68 23 58 81 40 58 94 57 58 107 74 58 120 91 58 133 108 58 146 125 58 159 142 58 172 159 58 185 176 58 198 193 58 211 210 58 224 227 58 237 244 58 250
7 87 142 24 87 155 41 87 168 58 87 181 75 87 194 92 87 207 109 87 220 126 87 233 143 87 246 160 87 3 177 87 16 194 87 29 211 87 42 228 87 55 245 87 68 6 87 81 23 87 94 40 87 107 57 87 120 74 87 133 91 87 146 108 87 159 125 87 172 142 87 185 159 87 198 176 87 211 193 87 224 210 87 237 227 87 250 244 87 7
7 116 155 24 116 168 41 116 181 58 116 194 75 116 207 92 116 220 109 116 233 126 116 246 143 116 3 160 116 16 177 116 29 194 116 42 211 116 55 228 116 68 245 116 81 6 116 94 23 116 107 40 116 120 57 116 133 74 116 146 91 116 159 108 116 172 125 116 185 142 116 198 159 116 211 176 116 224 193 116 237 210 116 250 227 116 7 244 116 20
7 145 168 24 145 181 41 145 194 58 145 207 75 145 220 92 145 233 109 145 246 126 145 3 143 145 16 160 145 29 177 145 42 194 145 55 211 145 68 228 145 81 245 145 94 6 145 107 23 145 120 40 145 133 57 145 146 74 145 159 91 145 172 108 145 185 125 145 198 142 145 211 159 145 224 176 145 237 193 145 250 210 145 7 227 145 20 244 145 33
7 174 181 24 174 194 41 174 207 58 174 220 75 174 233 92 174 246 109 174 3 126 174 16 143 174 29 160 174 42 177 174 55 194 174 68 211 174 81 228 174 94 245 174 107 6 174 120 23 174 133 40 174 146 57 174 159 74 174 172 91 174 185 108 174 198 125 174 211 142 174 224 159 174 237 176 174 250 193 174 7 210 174 20 227 174 33 244 174 46
7 203 194 24 203 207 41 203 220 58 203 233 75 203 246 92 203 3 109 203 16 126 203 29 143 203 42 160 203 55 177 203 68 194 203 81 211 203 94 228 203 107 245 203 120 6 203 133 23 203 146 40 203 159 57 203 172 74 203 185 91 203 198 108 203 211 125 203 224 142 203 237 159 203 250 176 203 7 193 203 20 210 203 33 227 203 46 244 203 59
7 232 207 24 232 220 41 232 233 58 232 246 75 232 3 92 232 16 109 232 29 126 232 42 143 232 55 160 232 68 177 232 81 194 232 94 211 232 107 228 232 120 245 232 133 6 232 146 23 232 159 40 232 172 57 232 185 74 232 198 91 232 211 108 232 224 125 232 237 142 232 250 159 232 7 176 232 20 193 232 33 210 232 46 227 232 59 244 232 72
7 5 220 24 5 233 41 5 246 58 5 3 75 5 16 92 5 29 109 5 42 126 5 55 143 5 68 160 5 81 177 5 94 194 5 107 211 5 120 228 5 133 245 5 146 6 5 159 23 5 172 40 5 185 57 5 198 74 5 211 91 5 224 108 5 237 125 5 250 142 5 7 159 5 20 176 5 33 193 5 46 210 5 59 227 5 72 244 5 85
7 34 233 24 34 246 41 34 3 58 34 16 75 34 29 92 34 42 109 34 55 126 34 68 143 34 81 160 34 94 177 34 107 194 34 120 211 34 133 228 34 146 245 34 159 6 34 172 23 34 185 40 34 198 57 34 211 74 34 224 91 34 237 108 34 250 125 34 7 142 34 20 159 34 33 176 34 46 193 34 59 210 34 72 227 34 85 244 34 98
7 63 246 24 63 3 41 63 16 58 63 29 75 63 42 92 63 55 109 63 68 126 63 81 143 63 94 160 63 107 177 63 120 194 63 133 211 63 146 228 63 159 245 63 172 6 63 185 23 63 198 40 63 211 57 63 224 74 63 237 91 63 250 108 63 7 125 63 20 142 63 33 159 63 46 176 63 59 193 63 72 210 63 85 227 63 98 244 63 111
7 92 3 24 92 16 41 92 29 58 92 42 75 92 55 92 92 68 109 92 81 126 92 94 143 92 107 160 92 120 177 92 133 194 92 146 211 92 159 228 92 172 245 92 185 6 92 198 23 92 211 40 92 224 57 92 237 74 92 250 91 92 7 108 92 20 125 92 33 142 92 46 159 92 59 176 92 72 193 92 85 210 92 98 227 92 111 244 92 124
7 121 16 24 121 29 41 121 42 58 121 55 75 121 68 92 121 81 109 121 94 126 121 107 143 121 120 160 121 133 177 121 146 194 121 159 211 121 172 228 121 185 245 121 198 6 121 211 23 121 224 40 121 237 57 121 250 74 121 7 91 121 20 108 121 33 125 121 46 142 121 59 159 121 72 176 121 85 193 121 98 210 121 111 227 121 124 244 121 137
