P3
36 36
255
11 22 33 28 22 46 45 22 59 62 22 72 79 22 85 96 22 98 113 22 111 130 22 124 147 22 137 164 22 150 181 22 163 198 22 176 215 22 189 232 22 202 249 22 215 10 22 228 27 22 241 44 22 254 61 22 11 78 22 24 95 22 37 112 22 50 129 22 63 146 22 76 163 22 89 180 22 102 197 22 115 214 22 128 231 22 141 248 22 154 9 22 167 26 22 180 43 22 193 60 22 206 77 22 219 94 22 232
11 51 46 28 51 59 45 51 72 62 51 85 79 51 98 96 51 111 113 51 124 130 51 137 147 51 150 164 51 163 181 51 176 198 51 189 215 51 202 232 51 215 249 51 228 10 51 241 27 51 254 44 51 11 61 51 24 78 51 37 95 51 50 112 51 63 129 51 76 146 51 89 163 51 102 180 51 115 197 51 128 214 51 141 231 51 154 248 51 167 9 51 180 26 51 193 43 51 206 60 51 219 77 51 232 94 51 245
11 80 59 28 80 72 45 80 85 62 80 98 79 80 111 96 80 124 113 80 137 130 80 150 147 80 163 164 80 176 181 80 189 198 80 202 215 80 215 232 80 228 249 80 241 10 80 254 27 80 11 44 80 24 61 80 37 78 80 50 95 80 63 112 80 76 129 80 89 146 80 102 163 80 115 180 80 128 197 80 141 214 80 154 231 80 167 248 80 180 9 80 193 26 80 206 43 80 219 60 80 232 77 80 245 94 80 2
11 109 72 28 109 85 45 109 98 62 109 111 79 109 124 96 109 137 113 109 150 130 109 163 147 109 176 164 109 189 181 109 202 198 109 215 215 109 228 232 109 241 249 109 254 10 109 11 27 109 24 44 109 37 61 109 50 78 109 63 95 109 76 112 109 89 129 109 102 146 109 115 163 109 128 180 109 141 197 109 154 214 109 167 231 109 180 248 109 193 9 109 206 26 109 219 43 109 232 60 109 245 77 109 2 94 109 15
11 138 85 28 138 98 45 138 111 62 138 124 79 138 137 96 138 150 113 138 163 130 138 176 147 138 189 164 138 202 181 138 215 198 138 228 215 138 241 232 138 254 249 138 11 10 138 24 27 138 37 44 138 50 61 138 63 78 138 76 95 138 89 112 138 102 129 138 115 146 138 128 163 138 141 180 138 154 197 138 167 214 138 180 231 138 193 248 138 206 9 138 219 26 138 232 43 138 245 60 138 2 77 138 15 94 138 28
11 167 98 28 167 111 45 167 124 62 167 137 79 167 150 96 167 163 113 167 176 130 167 189 147 167 202 164 167 215 181 167 228 198 167 241 215 167 254 232 167 11 249 167 24 10 167 37 27 167 50 44 167 63 61 167 76 78 167 89 95 167 102 112 167 115 129 167 128 146 167 141 163 167 154 180 167 167 197 167 180 214 167 193 231 167 206 248 167 219 9 167 232 26 167 245 43 167 2 60 167 15 77 167 28 94 167 41
11 196 111 28 196 124 45 196 137 62 196 150 79 196 163 96 196 176 113 196 189 130 196 202 147 196 215 164 196 228 181 196 241 198 196 254 215 196 11 232 196 24 249 196 37 10 196 50 27 196 63 44 196 76 61 196 89 78 196 102 95 196 115 112 196 128 129 196 141 146 196 154 163 196 167 180 196 180 197 196 193 214 196 206 231 196 219 248 196 232 9 196 245 26 196 2 43 196 15 60 196 28 77 196 41 94 196 54
11 225 124 28 225 137 45 225 150 62 225 163 79 225 176 96 225 189 113 225 202 130 225 215 147 225 228 164 225 241 181 225 254 198 225 11 215 225 24 232 225 37 249 225 50 10 225 63 27 225 76 44 225 89 61 225 102 78 225 115 95 225 128 112 225 141 129 225 154 146 225 167 163 225 180 180 225 193 197 225 206 214 225 219 231 225 232 248 225 245 9 225 2 26 225 15 43 225 28 60 225 41 77 225 54 94 225 67
11 254 137 28 254 150 45 254 163 62 254 176 79 254 189 96 254 202 113 254 215 130 254 228 147 254 241 164 254 254 181 254 11 198 254 24 215 254 37 232 254 50 249 254 63 10 254 76 27 254 89 44 254 102 61 254 115 78 254 128 95 254 141 112 254 154 129 254 167 146 254 180 163 254 193 180 254 206 197 254 219 214 254 232 231 254 245 248 254 2 9 254 15 26 254 28 43 254 41 60 254 54 77 254 67 94 254 80
11 27 150 28 27 163 45 27 176 62 27 189 79 27 202 96 27 215 113 27 228 130 27 241 147 27 254 164 27 11 181 27 24 198 27 37 215 27 50 232 27 63 249 27 76 10 27 89 27 27 102 44 27 115 61 27 128 78 27 141 95 27 154 112 27 167 129 27 180 146 27 193 163 27 206 180 27 219 197 27 232 214 27 245 231 27 2 248 27 15 9 27 28 26 27 41 43 27 54 60 27 67 77 27 80 94 27 93
11 56 163 28 56 176 45 56 189 62 56 202 79 56 215 96 56 228 113 56 241 130 56 254 147 56 11 164 56 24 181 56 37 198 56 50 215 56 63 232 56 76 249 56 89 10 56 102 27 56 115 44 56 128 61 56 141 78 56 154 95 56 167 112 56 180 129 56 193 146 56 206 163 56 219 180 56 232 197 56 245 214 56 2 231 56 15 248 56 28 9 56 41 26 56 54 43 56 67 60 56 80 77 56 93 94 56 106
11 85 176 28 85 189 45 85 202 62 85 215 79 85 228 96 85 241 113 85 254 130 85 11 147 85 24 164 85 37 181 85 50 198 85 63 215 85 76 232 85 89 249 85 102 10 85 115 27 85 128 44 85 141 61 85 154 78 85 167 95 85 180 112 85 193 129 85 206 146 85 219 163 85 232 180 85 245 197 85 2 214 85 15 231 85 28 248 85 41 9 85 54 26 85 67 43 85 80 60 85 93 77 85 106 94 85 119
11 114 189 28 114 202 45 114 215 62 114 228 79 114 241 96 114 254 113 114 11 130 114 24 147 114 37 164 114 50 181 114 63 198 114 76 215 114 89 232 114 102 249 114 115 10 114 128 27 114 141 44 114 154 61 114 167 78 114 180 95 114 193 112 114 206 129 114 219 146 114 232 163 114 245 180 114 2 197 114 15 214 114 28 231 114 41 248 114 54 9 114 67 26 114 80 43 114 93 60 114 106 77 114 119 94 114 132
11 143 202 28 143 215 45 143 228 62 143 241 79 143 254 96 143 11 113 143 24 130 143 37 147 143 50 164 143 63 181 143 76 198 143 89 215 143 102 232 143 115 249 143 128 10 143 141 27 143 154 44 143 167 61 143 180 78 143 193 95 143 206 112 143 219 129 143 232 146 143 245 163 143 2 180 143 15 197 143 28 214 143 41 231 143 54 248 143 67 9 143 80 26 143 93 43 143 106 60 143 119 77 143 132 94 143 145
11 172 215 28 172 228 45 172 241 62 172 254 79 172 11 96 172 24 113 172 37 130 172 50 147 172 63 164 172 76 181 172 89 198 172 102 215 172 115 232 172 128 249 172 141 10 172 154 27 172 167 44 172 180 61 172 193 78 172 206 95 172 219 112 172 232 129 172 245 146 172 2 163 172 15 180 172 28 197 172 41 214 172 54 231 172 67 248 172 80 9 172 93 26 172 106 43 172 119 60 172 132 77 172 145 94 172 158
11 201 228 28 201 241 45 201 254 62 201 11 79 201 24 96 201 37 113 201 50 130 201 63 147 201 76 164 201 89 181 201 102 198 201 115 215 201 128 232 201 141 249 201 154 10 201 167 27 201 180 44 201 193 61 201 206 78 201 219 95 201 232 112 201 245 129 201 2 146 201 15 163 201 28 180 201 41 197 201 54 214 201 67 231 201 80 248 201 93 9 201 106 26 201 119 43 201 132 60 201 145 77 201 158 94 201 171
11 230 241 28 230 254 45 230 11 62 230 24 79 230 37 96 230 50 113 230 63 130 230 76 147 230 89 164 230 102 181 230 115 198 230 128 215 230 141 232 230 154 249 230 167 10 230 180 27 230 193 44 230 206 61 230 219 78 230 232 95 230 245 112 230 2 129 230 15 146 230 28 163 230 41 180 230 54 197 230 67 214 230 80 231 230 93 248 230 106 9 230 119 26 230 132 43 230 145 60 230 158 77 230 171 94 230 184
11 3 254 28 3 11 45 3 24 62 3 37 79 3 50 96 3 63 113 3 76 130 3 89 147 3 102 164 3 115 181 3 128 198 3 141 215 3 154 232 3 167 249 3 180 10 3 193 27 3 206 44 3 219 61 3 232 78 3 245 95 3 2 112 3 15 129 3 28 146 3 41 163 3 54 180 3 67 197 3 80 214 3 93 231 3 106 248 3 119 9 3 132 26 3 145 43 3 158 60 3 171 77 3 184 94 3 197
11 32 11 28 32 24 45 32 37 62 32 50 79 32 63 96 32 76 113 32 89 130 32 102 147 32 115 164 32 128 181 32 141 198 32 154 215 32 167 232 32 180 249 32 193 10 32 206 27 32 219 44 32 232 61 32 245 78 32 2 95 32 15 112 32 28 129 32 41 146 32 54 163 32 67 180 32 80 197 32 93 214 32 106 231 32 119 248 32 132 9 32 145 26 32 158 43 32 171 60 32 184 77 32 197 94 32 210
11 61 24 28 61 37 45 61 50 62 61 63 79 61 76 96 61 89 113 61 102 130 61 115 147 61 128 164 61 141 181 61 154 198 61 167 215 61 180 232 61 193 249 61 206 10 61 219 27 61 232 44 61 245 61 61 2 78 61 15 95 61 28 112 61 41 129 61 54 146 61 67 163 61 80 180 61 93 197 61 106 214 61 119 231 61 132 248 61 145 9 61 158 26 61 171 43 61 184 60 61 197 77 61 210 94 61 223
11 90 37 28 90 50 45 90 63 62 90 76 79 90 89 96 90 102 113 90 115 130 90 128 147 90 141 164 90 154 181 90 167 198 90 180 215 90 193 232 90 206 249 90 219 10 90 232 27 90 245 44 90 2 61 90 15 78 90 28 95 90 41 112 90 54 129 90 67 146 90 80 163 90 93 180 90 106 197 90 119 214 90 132 231 90 145 248 90 158 9 90 171 26 90 184 43 90 197 60 90 210 77 90 223 94 90 236
11 119 50 28 119 63 45 119 76 62 119 89 79 119 102 96 119 115 113 119 128 130 119 141 147 119 154 164 119 167 181 119 180 198 119 193 215 119 206 232 119 219 249 119 232 10 119 245 27 119 2 44 119 15 61 119 28 78 119 41 95 119 54 112 119 67 129 119 80 146 119 93 163 119 106 180 119 119 197 119 132 214 119 145 231 119 158 248 119 171 9 119 184 26 119 197 43 119 210 60 119 223 77 119 236 94 119 249
11 148 63 28 148 76 45 148 89 62 148 102 79 148 115 96 148 128 113 148 141 130 148 154 147 148 167 164 148 180 181 148 193 198 148 206 215 148 219 232 148 232 249 148 245 10 148 2 27 148 15 44 148 28 61 148 41 78 148 54 95 148 67 112 148 80 129 148 93 146 148 106 163 148 119 180 148 132 197 148 145 214 148 158 231 148 171 248 148 184 9 148 197 26 148 210 43 148 223 60 148 236 77 148 249 94 148 6
11 177 76 28 177 89 45 177 102 62 177 115 79 177 128 96 177 141 113 177 154 130 177 167 147 177 180 164 177 193 181 177 206 198 177 219 215 177 232 232 177 245 249 177 2 10 177 15 27 177 28 44 177 41 61 177 54 78 177 67 95 177 80 112 177 93 129 177 106 146 177 119 163 177 132 180 177 145 197 177 158 214 177 171 231 177 184 248 177 197 9 177 210 26 177 223 43 177 236 60 177 249 77 177 6 94 177 19
11 206 89 28 206 102 45 206 115 62 206 128 79 206 141 96 206 154 113 206 167 130 206 180 147 206 193 164 206 206 181 206 219 198 206 232 215 206 245 232 206 2 249 206 15 10 206 28 27 206 41 44 206 54 61 206 67 78 206 80 95 206 93 112 206 106 129 206 119 146 206 132 163 206 145 180 206 158 197 206 171 214 206 184 231 206 197 248 206 210 9 206 223 26 206 236 43 206 249 60 206 6 77 206 19 94 206 32
11 235 102 28 235 115 45 235 128 62 235 141 79 235 154 96 235 167 113 235 180 130 235 193 147 235 206 164 235 219 181 235 232 198 235 245 215 235 2 232 235 15 249 235 28 10 235 41 27 235 54 44 235 67 61 235 80 78 235 93 95 235 106 112 235 119 129 235 132 146 235 145 163 235 158 180 235 171 197 235 184 214 235 197 231 235 210 248 235 223 9 235 236 26 235 249 43 235 6 60 235 19 77 235 32 94 235 45
11 8 115 28 8 128 45 8 141 62 8 154 79 8 167 96 8 180 113 8 193 130 8 206 147 8 219 164 8 232 181 8 245 198 8 2 215 8 15 232 8 28 249 8 41 10 8 54 27 8 67 44 8 80 61 8 93 78 8 106 95 8 119 112 8 132 129 8 145 146 8 158 163 8 171 180 8 184 197 8 197 214 8 210 231 8 223 248 8 236 9 8 249 26 8 6 43 8 19 60 8 32 77 8 45 94 8 58
11 37 128 28 37 141 45 37 154 62 37 167 79 37 180 96 37 193 113 37 206 130 37 219 147 37 232 164 37 245 181 37 2 198 37 15 215 37 28 232 37 41 249 37 54 10 37 67 27 37 80 44 37 93 61 37 106 78 37 119 95 37 132 112 37 145 129 37 158 146 37 171 163 37 184 180 37 197 197 37 210 214 37 223 231 37 236 248 37 249 9 37 6 26 37 19 43 37 32 60 37 45 77 37 58 94 37 71
11 66 141 28 66 154 45 66 167 62 66 180 79 66 193 96 66 206 113 66 219 130 66 232 147 66 245 164 66 2 181 66 15 198 66 28 215 66 41 232 66 54 249 66 67 10 66 80 27 66 93 44 66 106 61 66 119 78 66 132 95 66 145 112 66 158 129 66 171 146 66 184 163 66 197 180 66 210 197 66 223 214 66 236 231 66 249 248 66 6 9 66 19 26 66 32 43 66 45 60 66 58 77 66 71 94 66 84
11 95 154 28 95 167 45 95 180 62 95 193 79 95 206 96 95 219 113 95 232 130 95 245 147 95 2 164 95 15 181 95 28 198 95 41 215 95 54 232 95 67 249 95 80 10 95 93 27 95 106 44 95 119 61 95 132 78 95 145 95 95 158 112 95 171 129 95 184 146 95 197 163 95 210 180 95 223 197 95 236 214 95 249 231 95 6 248 95 19 9 95 32 26 95 45 43 95 58 60 95 71 77 95 84 94 95 97
11 124 167 28 124 180 45 124 193 62 124 206 79 124 219 96 124 232 113 124 245 130 124 2 147 124 15 164 124 28 181 124 41 198 124 54 215 124 67 232 124 80 249 124 93 10 124 106 27 124 119 44 124 132 61 124 145 78 124 158 95 124 171 112 124 184 129 124 197 146 124 210 163 124 223 180 124 236 197 124 249 214 124 6 231 124 19 248 124 32 9 124 45 26 124 58 43 124 71 60 124 84 77 124 97 94 124 110
11 153 180 28 153 193 45 153 206 62 153 219 79 153 232 96 153 245 113 153 2 130 153 15 147 153 28 164 153 41 181 153 54 198 153 67 215 153 80 232 153 93 249 153 106 10 153 119 27 153 132 44 153 145 61 153 158 78 153 171 95 153 184 112 153 197 129 153 210 146 153 223 163 153 236 180 153 249 197 153 6 214 153 19 231 153 32 248 153 45 9 153 58 26 153 71 43 153 84 60 153 97 77 153 110 94 153 123
11 182 193 28 182 206 45 182 219 62 182 232 79 182 245 96 182 2 113 182 15 130 182 28 147 182 41 164 182 54 181 182 67 198 182 80 215 182 93 232 182 106 249 182 119 10 182 132 27 182 145 44 182 158 61 182 171 78 182 184 95 182 197 112 182 210 129 182 223 146 182 236 163 182 249 180 182 6 197 182 19 214 182 32 231 182 45 248 182 58 9 182 71 26 182 84 43 182 97 60 182 110 77 182 123 94 182 136
11 211 206 28 211 219 45 211 232 62 211 245 79 211 2 96 211 15 113 211 28 130 211 41 147 211 54 164 211 67 181 211 80 198 211 93 215 211 106 232 211 119 249 211 132 10 211 145 27 211 158 44 211 171 61 211 184 78 211 197 95 211 210 112 211 223 129 211 236 146 211 249 163 211 6 180 211 19 197 211 32 214 211 45 231 211 58 248 211 71 9 211 84 26 211 97 43 211 110 60 211 123 77 211 136 94 211 149
11 240 219 28 240 232 45 240 245 62 240 2 79 240 15 96 240 28 113 240 41 130 240 54 147 240 67 164 240 80 181 240 93 198 240 106 215 240 119 232 240 132 249 240 145 10 240 158 27 240 171 44 240 184 61 240 197 78 240 210 95 240 223 112 240 236 129 240 249 146 240 6 163 240 19 180 240 32 197 240 45 214 240 58 231 240 71 248 240 84 9 240 97 26 240 110 43 240 123 60 240 136 77 240 149 94 240 162
11 13 232 28 13 245 45 13 2 62 13 15 79 13 28 96 13 41 113 13 54 130 13 67 147 13 80 164 13 93 181 13 106 198 13 119 215 13 132 232 13 145 249 13 158 10 13 171 27 13 184 44 13 197 61 13 210 78 13 223 95 13 236 112 13 249 129 13 6 146 13 19 163 13 32 180 13 45 197 13 58 214 13 71 231 13 84 248 13 97 9 13 110 26 13 123 43 13 136 60 13 149 77 13 162 94 13 175
