P3
60 24
255
23 46 69 40 46 82 57 46 95 74 46 108 91 46 121 108 46 134 125 46 147 142 46 160 159 46 173 176 46 186 193 46 199 210 46 212 227 46 225 244 46 238 5 46 251 22 46 8 39 46 21 56 46 34 73 46 47 90 46 60 107 46 73 124 46 86 141 46 99 158 46 112 175 46 125 192 46 138 209 46 151 226 46 164 243 46 177 4 46 190 21 46 203 38 46 216 55 46 229 72 46 242 89 46 255 106 46 12 123 46 25 140 46 38 157 46 51 174 46 64 191 46 77 208 46 90 225 46 103 242 46 116 3 46 129 20 46 142 37 46 155 54 46 168 71 46 181 88 46 194 105 46 207 122 46 220 139 46 233 156 46 246 173 46 3 190 46 16 207 46 29 224 46 42 241 46 55 2 46 68
23 75 82 40 75 95 57 75 108 74 75 121 91 75 134 108 75 147 125 75 160 142 75 173 159 75 186 176 75 199 193 75 212 210 75 225 227 75 238 244 75 251 5 75 8 22 75 21 39 75 34 56 75 47 73 75 60 90 75 73 107 75 86 124 75 99 141 75 112 158 75 125 175 75 138 192 75 151 209 75 164 226 75 177 243 75 190 4 75 203 21 75 216 38 75 229 55 75 242 72 75 255 89 75 12 106 75 25 123 75 38 140 75 51 157 75 64 174 75 77 191 75 90 208 75 103 225 75 116 242 75 129 3 75 142 20 75 155 37 75 168 54 75 181 71 75 194 88 75 207 105 75 220 122 75 233 139 75 246 156 75 3 173 75 16 190 75 29 207 75 42 224 75 55 241 75 68 2 75 81
23 104 95 40 104 108 57 104 121 74 104 134 91 104 147 108 104 160 125 104 173 142 104 186 159 104 199 176 104 212 193 104 225 210 104 238 227 104 251 244 104 8 5 104 21 22 104 34 39 104 47 56 104 60 73 104 73 90 104 86 107 104 99 124 104 112 141 104 125 158 104 138 175 104 151 192 104 164 209 104 177 226 104 190 243 104 203 4 104 216 21 104 229 38 104 242 55 104 255 72 104 12 89 104 25 106 104 38 123 104 51 140 104 64 157 104 77 174 104 90 191 104 103 208 104 116 225 104 129 242 104 142 3 104 155 20 104 168 37 104 181 54 104 194 71 104 207 88 104 220 105 104 233 122 104 246 139 104 3 156 104 16 173 104 29 190 104 42 207 104 55 224 104 68 241 104 81 2 104 94
23 133 108 40 133 121 57 133 134 74 133 147 91 133 160 108 133 173 125 133 186 142 133 199 159 133 212 176 133 225 193 133 238 210 133 251 227 133 8 244 133 21 5 133 34 22 133 47 39 133 60 56 133 73 73 133 86 90 133 99 107 133 112 124 133 125 141 133 138 158 133 151 175 133 164 192 133 177 209 133 190 226 133 203 243 133 216 4 133 229 21 133 242 38 133 255 55 133 12 72 133 25 89 133 38 106 133 51 123 133 64 140 133 77 157 133 90 174 133 103 191 133 116 208 133 129 225 133 142 242 133 155 3 133 168 20 133 181 37 133 194 54 133 207 71 133 220 88 133 233 105 133 246 122 133 3 139 133 16 156 133 29 173 133 42 190 133 55 207 133 68 224 133 81 241 133 94 2 133 107
23 162 121 40 162 134 57 162 147 74 162 160 91 162 173 108 162 186 125 162 199 142 162 212 159 162 225 176 162 238 193 162 251 210 162 8 227 162 21 244 162 34 5 162 47 22 162 60 39 162 73 56 162 86 73 162 99 90 162 112 107 162 125 124 162 138 141 162 151 158 162 164 175 162 177 192 162 190 209 162 203 226 162 216 243 162 229 4 162 242 21 162 255 38 162 12 55 162 25 72 162 38 89 162 51 106 162 64 123 162 77 140 162 90 157 162 103 174 162 116 191 162 129 208 162 142 225 162 155 242 162 168 3 162 181 20 162 194 37 162 207 54 162 220 71 162 233 88 162 246 105 162 3 122 162 16 139 162 29 156 162 42 173 162 55 190 162 68 207 162 81 224 162 94 241 162 107 2 162 120
23 191 134 40 191 147 57 191 160 74 191 173 91 191 186 108 191 199 125 191 212 142 191 225 159 191 238 176 191 251 193 191 8 210 191 21 227 191 34 244 191 47 5 191 60 22 191 73 39 191 86 56 191 99 73 191 112 90 191 125 107 191 138 124 191 151 141 191 164 158 191 177 175 191 190 192 191 203 209 191 216 226 191 229 243 191 242 4 191 255 21 191 12 38 191 25 55 191 38 72 191 51 89 191 64 106 191 77 123 191 90 140 191 103 157 191 116 174 191 129 191 191 142 208 191 155 225 191 168 242 191 181 3 191 194 20 191 207 37 191 220 54 191 233 71 191 246 88 191 3 105 191 16 122 191 29 139 191 42 156 191 55 173 191 68 190 191 81 207 191 94 224 191 107 241 191 120 2 191 133
23 220 147 40 220 160 57 220 173 74 220 186 91 220 199 108 220 212 125 220 225 142 220 238 159 220 251 176 220 8 193 220 21 210 220 34 227 220 47 244 220 60 5 220 73 22 220 86 39 220 99 56 220 112 73 220 125 90 220 138 107 220 151 124 220 164 141 220 177 158 220 190 175 220 203 192 220 216 209 220 229 226 220 242 243 220 255 4 220 12 21 220 25 38 220 38 55 220 51 72 220 64 89 220 77 106 220 90 123 220 103 140 220 116 157 220 129 174 220 142 191 220 155 208 220 168 225 220 181 242 220 194 3 220 207 20 220 220 37 220 233 54 220 246 71 220 3 88 220 16 105 220 29 122 220 42 139 220 55 156 220 68 173 220 81 190 220 94 207 220 107 224 220 120 241 220 133 2 220 146
23 249 160 40 249 173 57 249 186 74 249 199 91 249 212 108 249 225 125 249 238 142 249 251 159 249 8 176 249 21 193 249 34 210 249 47 227 249 60 244 249 73 5 249 86 22 249 99 39 249 112 56 249 125 73 249 138 90 249 151 107 249 164 124 249 177 141 249 190 158 249 203 175 249 216 192 249 229 209 249 242 226 249 255 243 249 12 4 249 25 21 249 38 38 249 51 55 249 64 72 249 77 89 249 90 106 249 103 123 249 116 140 249 129 157 249 142 174 249 155 191 249 168 208 249 181 225 249 194 242 249 207 3 249 220 20 249 233 37 249 246 54 249 3 71 249 16 88 249 29 105 249 42 122 249 55 139 249 68 156 249 81 173 249 94 190 249 107 207 249 120 224 249 133 241 249 146 2 249 159
23 22 173 40 22 186 57 22 199 74 22 212 91 22 225 108 22 238 125 22 251 142 22 8 159 22 21 176 22 34 193 22 47 210 22 60 227 22 73 244 22 86 5 22 99 22 22 112 39 22 125 56 22 138 73 22 151 90 22 164 107 22 177 124 22 190 141 22 203 158 22 216 175 22 229 192 22 242 209 22 255 226 22 12 243 22 25 4 22 38 21 22 51 38 22 64 55 22 77 72 22 90 89 22 103 106 22 116 123 22 129 140 22 142 157 22 155 174 22 168 191 22 181 208 22 194 225 22 207 242 22 220 3 22 233 20 22 246 37 22 3 54 22 16 71 22 29 88 22 42 105 22 55 122 22 68 139 22 81 156 22 94 173 22 107 190 22 120 207 22 133 224 22 146 241 22 159 2 22 172
23 51 186 40 51 199 57 51 212 74 51 225 91 51 238 108 51 251 125 51 8 142 51 21 159 51 34 176 51 47 193 51 60 210 51 73 227 51 86 244 51 99 5 51 112 22 51 125 39 51 138 56 51 151 73 51 164 90 51 177 107 51 190 124 51 203 141 51 216 158 51 229 175 51 242 192 51 255 209 51 12 226 51 25 243 51 38 4 51 51 21 51 64 38 51 77 55 51 90 72 51 103 89 51 116 106 51 129 123 51 142 140 51 155 157 51 168 174 51 181 191 51 194 208 51 207 225 51 220 242 51 233 3 51 246 20 51 3 37 51 16 54 51 29 71 51 42 88 51 55 105 51 68 122 51 81 139 51 94 156 51 107 173 51 120 190 51 133 207 51 146 224 51 159 241 51 172 2 51 185
23 80 199 40 80 212 57 80 225 74 80 238 91 80 251 108 80 8 125 80 21 142 80 34 159 80 47 176 80 60 193 80 73 210 80 86 227 80 99 244 80 112 5 80 125 22 80 138 39 80 151 56 80 164 73 80 177 90 80 190 107 80 203 124 80 216 141 80 229 158 80 242 175 80 255 192 80 12 209 80 25 226 80 38 243 80 51 4 80 64 21 80 77 38 80 90 55 80 103 72 80 116 89 80 129 106 80 142 123 80 155 140 80 168 157 80 181 174 80 194 191 80 207 208 80 220 225 80 233 242 80 246 3 80 3 20 80 16 37 80 29 54 80 42 71 80 55 88 80 68 105 80 81 122 80 94 139 80 107 156 80 120 173 80 133 190 80 146 207 80 159 224 80 172 241 80 185 2 80 198
23 109 212 40 109 225 57 109 238 74 109 251 91 109 8 108 109 21 125 109 34 142 109 47 159 109 60 176 109 73 193 109 86 210 109 99 227 109 112 244 109 125 5 109 138 22 109 151 39 109 164 56 109 177 73 109 190 90 109 203 107 109 216 124 109 229 141 109 242 158 109 255 175 109 12 192 109 25 209 109 38 226 109 51 243 109 64 4 109 77 21 109 90 38 109 103 55 109 116 72 109 129 89 109 142 106 109 155 123 109 168 140 109 181 157 109 194 174 109 207 191 109 220 208 109 233 225 109 246 242 109 3 3 109 16 20 109 29 37 109 42 54 109 55 71 109 68 88 109 81 105 109 94 122 109 107 139 109 120 156 109 133 173 109 146 190 109 159 207 109 172 224 109 185 241 109 198 2 109 211
23 138 225 40 138 238 57 138 251 74 138 8 91 138 21 108 138 34 125 138 47 142 138 60 159 138 73 176 138 86 193 138 99 210 138 112 227 138 125 244 138 138 5 138 151 22 138 164 39 138 177 56 138 190 73 138 203 90 138 216 107 138 229 124 138 242 141 138 255 158 138 12 175 138 25 192 138 38 209 138 51 226 138 64 243 138 77 4 138 90 21 138 103 38 138 116 55 138 129 72 138 142 89 138 155 106 138 168 123 138 181 140 138 194 157 138 207 174 138 220 191 138 233 208 138 246 225 138 3 242 138 16 3 138 29 20 138 42 37 138 55 54 138 68 71 138 81 88 138 94 105 138 107 122 138 120 139 138 133 156 138 146 173 138 159 190 138 172 207 138 185 224 138 198 241 138 211 2 138 224
23 167 238 40 167 251 57 167 8 74 167 21 91 167 34 108 167 47 125 167 60 142 167 73 159 167 86 176 167 99 193 167 112 210 167 125 227 167 138 244 167 151 5 167 164 22 167 177 39 167 190 56 167 203 73 167 216 90 167 229 107 167 242 124 167 255 141 167 12 158 167 25 175 167 38 192 167 51 209 167 64 226 167 77 243 167 90 4 167 103 21 167 116 38 167 129 55 167 142 72 167 155 89 167 168 106 167 181 123 167 194 140 167 207 157 167 220 174 167 233 191 167 246 208 167 3 225 167 16 242 167 29 3 167 42 20 167 55 37 167 68 54 167 81 71 167 94 88 167 107 105 167 120 122 167 133 139 167 146 156 167 159 173 167 172 190 167 185 207 167 198 224 167 211 241 167 224 2 167 237
23 196 251 40 196 8 57 196 21 74 196 34 91 196 47 108 196 60 125 196 73 142 196 86 159 196 99 176 196 112 193 196 125 210 196 138 227 196 151 244 196 164 5 196 177 22 196 190 39 196 203 56 196 216 73 196 229 90 196 242 107 196 255 124 196 12 141 196 25 158 196 38 175 196 51 192 196 64 209 196 77 226 196 90 243 196 103 4 196 116 21 196 129 38 196 142 55 196 155 72 196 168 89 196 181 106 196 194 123 196 207 140 196 220 157 196 233 174 196 246 191 196 3 208 196 16 225 196 29 242 196 42 3 196 55 20 196 68 37 196 81 54 196 94 71 196 107 88 196 120 105 196 133 122 196 146 139 196 159 156 196 172 173 196 185 190 196 198 207 196 211 224 196 224 241 196 237 2 196 250
23 225 8 40 225 21 57 225 34 74 225 47 91 225 60 108 225 73 125 225 86 142 225 99 159 225 112 176 225 125 193 225 138 210 225 151 227 225 164 244 225 177 5 225 190 22 225 203 39 225 216 56 225 229 73 225 242 90 225 255 107 225 12 124 225 25 141 225 38 158 225 51 175 225 64 192 225 77 209 225 90 226 225 103 243 225 116 4 225 129 21 225 142 38 225 155 55 225 168 72 225 181 89 225 194 106 225 207 123 225 220 140 225 233 157 225 246 174 225 3 191 225 16 208 225 29 225 225 42 242 225 55 3 225 68 20 225 81 37 225 94 54 225 107 71 225 120 88 225 133 105 225 146 122 225 159 139 225 172 156 225 185 173 225 198 190 225 211 207 225 224 224 225 237 241 225 250 2 225 7
23 254 21 40 254 34 57 254 47 74 254 60 91 254 73 108 254 86 125 254 99 142 254 112 159 254 125 176 254 138 193 254 151 210 254 164 227 254 177 244 254 190 5 254 203 22 254 216 39 254 229 56 254 242 73 254 255 90 254 12 107 254 25 124 254 38 141 254 51 158 254 64 175 254 77 192 254 90 209 254 103 226 254 116 243 254 129 4 254 142 21 254 155 38 254 168 55 254 181 72 254 194 89 254 207 106 254 220 123 254 233 140 254 246 157 254 3 174 254 16 191 254 29 208 254 42 225 254 55 242 254 68 3 254 81 20 254 94 37 254 107 54 254 120 71 254 133 88 254 146 105 254 159 122 254 172 139 254 185 156 254 198 173 254 211 190 254 224 207 254 237 224 254 250 241 254 7 2 254 20
23 27 34 40 27 47 57 27 60 74 27 73 91 27 86 108 27 99 125 27 112 142 27 125 159 27 138 176 27 151 193 27 164 210 27 177 227 27 190 244 27 203 5 27 216 22 27 229 39 27 242 56 27 255 73 27 12 90 27 25 107 27 38 124 27 51 141 27 64 158 27 77 175 27 90 192 27 103 209 27 116 226 27 129 243 27 142 4 27 155 21 27 168 38 27 181 55 27 194 72 27 207 89 27 220 106 27 233 123 27 246 140 27 3 157 27 16 174 27 29 191 27 42 208 27 55 225 27 68 242 27 81 3 27 94 20 27 107 37 27 120 54 27 133 71 27 146 88 27 159 105 27 172 122 27 185 139 27 198 156 27 211 173 27 224 190 27 237 207 27 250 224 27 7 241 27 20 2 27 33
23 56 47 40 56 60 57 56 73 74 56 86 91 56 99 108 56 112 125 56 125 142 56 138 159 56 151 176 56 164 193 56 177 210 56 190 227 56 203 244 56 216 5 56 229 22 56 242 39 56 255 56 56 12 73 56 25 90 56 38 107 56 51 124 56 64 141 56 77 158 56 90 175 56 103 192 56 116 209 56 129 226 56 142 243 56 155 4 56 168 21 56 181 38 56 194 55 56 207 72 56 220 89 56 233 106 56 246 123 56 3 140 56 16 157 56 29 174 56 42 191 56 55 208 56 68 225 56 81 242 56 94 3 56 107 20 56 120 37 56 133 54 56 146 71 56 159 88 56 172 105 56 185 122 56 198 139 56 211 156 56 224 173 56 237 190 56 250 207 56 7 224 56 20 241 56 33 2 56 46
23 85 60 40 85 73 57 85 86 74 85 99 91 85 112 108 85 125 125 85 138 142 85 151 159 85 164 176 85 177 193 85 190 210 85 203 227 85 216 244 85 229 5 85 242 22 85 255 39 85 12 56 85 25 73 85 38 90 85 51 107 85 64 124 85 77 141 85 90 158 85 103 175 85 116 192 85 129 209 85 142 226 85 155 243 85 168 4 85 181 21 85 194 38 85 207 55 85 220 72 85 233 89 85 246 106 85 3 123 85 16 140 85 29 157 85 42 174 85 55 191 85 68 208 85 81 225 85 94 242 85 107 3 85 120 20 85 133 37 85 146 54 85 159 71 85 172 88 85 185 105 85 198 122 85 211 139 85 224 156 85 237 173 85 250 190 85 7 207 85 20 224 85 33 241 85 46 2 85 59
23 114 73 40 114 86 57 114 99 74 114 112 91 114 125 108 114 138 125 114 151 142 114 164 159 114 177 176 114 190 193 114 203 210 114 216 227 114 229 244 114 242 5 114 255 22 114 12 39 114 25 56 114 38 73 114 51 90 114 64 107 114 77 124 114 90 141 114 103 158 114 116 175 114 129 192 114 142 209 114 155 226 114 168 243 114 181 4 114 194 21 114 207 38 114 220 55 114 233 72 114 246 89 114 3 106 114 16 123 114 29 140 114 42 157 114 55 174 114 68 191 114 81 208 114 94 225 114 107 242 114 120 3 114 133 20 114 146 37 114 159 54 114 172 71 114 185 88 114 198 105 114 211 122 114 224 139 114 237 156 114 250 173 114 7 190 114 20 207 114 33 224 114 46 241 114 59 2 114 72
23 143 86 40 143 99 57 143 112 74 143 125 91 143 138 108 143 151 125 143 164 142 143 177 159 143 190 176 143 203 193 143 216 210 143 229 227 143 242 244 143 255 5 143 12 22 143 25 39 143 38 56 143 51 73 143 64 90 143 77 107 143 90 124 143 103 141 143 116 158 143 129 175 143 142 192 143 155 209 143 168 226 143 181 243 143 194 4 143 207 21 143 220 38 143 233 55 143 246 72 143 3 89 143 16 106 143 29 123 143 42 140 143 55 157 143 68 174 143 81 191 143 94 208 143 107 225 143 120 242 143 133 3 143 146 20 143 159 37 143 172 54 143 185 71 143 198 88 143 211 105 143 224 122 143 237 139 143 250 156 143 7 173 143 20 190 143 33 207 143 46 224 143 59 241 143 72 2 143 85
23 172 99 40 172 112 57 172 125 74 172 138 91 172 151 108 172 164 125 172 177 142 172 190 159 172 203 176 172 216 193 172 229 210 172 242 227 172 255 244 172 12 5 172 25 22 172 38 39 172 51 56 172 64 73 172 77 90 172 90 107 172 103 124 172 116 141 172 129 158 172 142 175 172 155 192 172 168 209 172 181 226 172 194 243 172 207 4 172 220 21 172 233 38 172 246 55 172 3 72 172 16 89 172 29 106 172 42 123 172 55 140 172 68 157 172 81 174 172 94 191 172 107 208 172 120 225 172 133 242 172 146 3 172 159 20 172 172 37 172 185 54 172 198 71 172 211 88 172 224 105 172 237 122 172 250 139 172 7 156 172 20 173 172 33 190 172 46 207 172 59 224 172 72 241 172 85 2 172 98
23 201 112 40 201 125 57 201 138 74 201 151 91 201 164 108 201 177 125 201 190 142 201 203 159 201 216 176 201 229 193 201 242 210 201 255 227 201 12 244 201 25 5 201 38 22 201 51 39 201 64 56 201 77 73 201 90 90 201 103 107 201 116 124 201 129 141 201 142 158 201 155 175 201 168 192 201 181 209 201 194 226 201 207 243 201 220 4 201 233 21 201 246 38 201 3 55 201 16 72 201 29 89 201 42 106 201 55 123 201 68 140 201 81 157 201 94 174 201 107 191 201 120 208 201 133 225 201 146 242 201 159 3 201 172 20 201 185 37 201 198 54 201 211 71 201 224 88 201 237 105 201 250 122 201 7 139 201 20 156 201 33 173 201 46 190 201 59 207 201 72 224 201 85 241 201 98 2 201 111
